HIERARCHY
ROOT Hips
{
	OFFSET -0.001795 -0.223333 0.028219
	CHANNELS 6 Xposition Yposition Zposition Zrotation Yrotation Xrotation 
	JOINT LeftUpLeg
	{
		OFFSET 0.069520 -0.091406 -0.006815
		CHANNELS 3 Zrotation Yrotation Xrotation
		JOINT LeftLeg
		{
			OFFSET 0.034277 -0.375199 -0.004496
			CHANNELS 3 Zrotation Yrotation Xrotation
			JOINT LeftFoot
			{
				OFFSET -0.013596 -0.397961 -0.043693
				CHANNELS 3 Zrotation Yrotation Xrotation
				JOINT LeftToe
				{
					OFFSET 0.026358 -0.055791 0.119288
					CHANNELS 3 Zrotation Yrotation Xrotation
					End Site
					{
						OFFSET 0.000000 0.000000 0.000000
					}
				}
			}
		}
	}
	JOINT RightUpLeg
	{
		OFFSET -0.067670 -0.090522 -0.004320
		CHANNELS 3 Zrotation Yrotation Xrotation
		JOINT RightLeg
		{
			OFFSET -0.038290 -0.382569 -0.008850
			CHANNELS 3 Zrotation Yrotation Xrotation
			JOINT RightFoot
			{
				OFFSET 0.015774 -0.398415 -0.042312
				CHANNELS 3 Zrotation Yrotation Xrotation
				JOINT RightToe
				{
					OFFSET -0.025372 -0.048144 0.123348
					CHANNELS 3 Zrotation Yrotation Xrotation
					End Site
					{
						OFFSET 0.000000 0.000000 0.000000
					}
				}
			}
		}
	}
	JOINT Spine
	{
		OFFSET -0.002533 0.108963 -0.026696
		CHANNELS 3 Zrotation Yrotation Xrotation
		JOINT Spine1
		{
			OFFSET 0.005487 0.135180 0.001092
			CHANNELS 3 Zrotation Yrotation Xrotation
			JOINT Spine2
			{
				OFFSET 0.001457 0.052922 0.025425
				CHANNELS 3 Zrotation Yrotation Xrotation
				JOINT Neck
				{
					OFFSET -0.002778 0.213870 -0.042857
					CHANNELS 3 Zrotation Yrotation Xrotation
					JOINT Head
					{
						OFFSET 0.005152 0.064970 0.051349
						CHANNELS 3 Zrotation Yrotation Xrotation
						End Site
						{
							OFFSET 0.000000 0.000000 0.000000
						}
					}
				}
				JOINT LeftShoulder
				{
					OFFSET 0.078845 0.121749 -0.034090
					CHANNELS 3 Zrotation Yrotation Xrotation
					JOINT LeftArm
					{
						OFFSET 0.090977 0.030469 -0.008868
						CHANNELS 3 Zrotation Yrotation Xrotation
						JOINT LeftForeArm
						{
							OFFSET 0.259612 -0.012772 -0.027456
							CHANNELS 3 Zrotation Yrotation Xrotation
							JOINT LeftHand
							{
								OFFSET 0.249234 0.008986 -0.001171
								CHANNELS 3 Zrotation Yrotation Xrotation
								End Site
								{
									OFFSET 0.000000 0.000000 0.000000
								}
							}
						}
					}
				}
				JOINT RightShoulder
				{
					OFFSET -0.081759 0.118833 -0.038615
					CHANNELS 3 Zrotation Yrotation Xrotation
					JOINT RightArm
					{
						OFFSET -0.096012 0.032551 -0.009143
						CHANNELS 3 Zrotation Yrotation Xrotation
						JOINT RightForeArm
						{
							OFFSET -0.253742 -0.013329 -0.021401
							CHANNELS 3 Zrotation Yrotation Xrotation
							JOINT RightHand
							{
								OFFSET -0.255298 0.007772 -0.005559
								CHANNELS 3 Zrotation Yrotation Xrotation
								End Site
								{
									OFFSET 0.000000 0.000000 0.000000
								}
							}
						}
					}
				}
			}
		}
	}
}
MOTION
Frames: 13
Frame Time: 0.050000
0.601344 0.958006 -1.105284 -0.431079 -49.015613 -13.008360 -6.326894 2.302392 11.356045 -1.593057 2.887932 17.668416 72.831645 41.143664 106.145974 0.000000 0.000000 0.000000 -1.892593 1.568177 -13.435712 -3.499671 2.188319 14.339575 11.811717 -2.125198 25.422107 0.000000 0.000000 0.000000 14.799432 0.220936 30.386500 -4.445142 0.137266 -17.644689 -1.328972 -1.373685 34.051878 14.689572 -12.501717 -20.553557 0.000000 0.000000 0.000000 -4.705375 -3.580180 3.048064 -72.575992 9.452440 -12.560074 -4.726884 -46.238140 8.060343 0.000000 0.000000 0.000000 23.942228 -5.230330 -13.840276 49.139067 -8.487144 -8.682611 -3.792782 51.459395 -3.877414 0.000000 0.000000 0.000000 
0.618516 0.960162 -1.113802 -0.711235 -50.060113 -13.212918 -6.131212 2.646675 12.488683 -2.200414 2.802714 16.010409 73.519216 41.720235 105.576468 0.000000 0.000000 0.000000 -1.941793 1.622288 -13.732767 -4.029360 2.378509 14.708823 13.017636 -1.177558 26.343120 0.000000 0.000000 0.000000 13.899907 0.498521 30.804295 -3.825146 -0.093043 -18.072812 -2.128755 -1.847638 34.128844 13.896135 -12.053538 -21.855911 0.000000 0.000000 0.000000 -3.310244 -3.210788 2.469689 -73.700660 10.194370 -12.320601 -3.688654 -44.696501 7.218488 0.000000 0.000000 0.000000 24.867149 -4.723990 -14.593509 48.636736 -10.098351 -8.905714 -2.000151 51.639000 -3.186016 0.000000 0.000000 0.000000 
0.633959 0.962400 -1.122873 -1.793040 -50.949614 -13.419017 -5.496916 2.850140 13.275268 -2.159992 2.816062 15.912126 72.527290 41.861224 104.561026 0.000000 0.000000 0.000000 -0.745007 1.705686 -14.045445 -3.791857 3.005882 17.349951 12.384027 -2.334807 26.622303 0.000000 0.000000 0.000000 13.453874 0.713216 31.260294 -3.898806 -0.071359 -17.878337 -2.518578 -2.403992 34.441578 13.802827 -12.074483 -22.238044 0.000000 0.000000 0.000000 -3.021901 -3.620571 2.574958 -74.504632 9.949545 -11.949093 -0.594428 -43.309787 5.723312 0.000000 0.000000 0.000000 24.023410 -5.022809 -14.635473 49.315440 -10.495265 -9.334070 0.802231 49.853197 -1.911092 0.000000 0.000000 0.000000 
0.647950 0.963656 -1.132392 -2.833359 -51.670295 -13.310037 -4.676177 2.929393 13.666983 -2.459205 2.867661 15.426930 73.375886 42.131950 104.709545 0.000000 0.000000 0.000000 0.267735 1.999157 -15.257888 -2.178084 4.169709 22.533819 9.810186 -5.289993 25.843098 0.000000 0.000000 0.000000 13.545385 0.861582 31.997958 -4.661354 0.133156 -19.057054 -2.939594 -3.564396 35.401134 12.757729 -11.783355 -22.409399 0.000000 0.000000 0.000000 -4.133922 -1.954406 2.324909 -72.811209 10.534449 -12.201849 -1.833508 -42.242556 6.163885 0.000000 0.000000 0.000000 24.560746 -5.873485 -16.018685 48.694133 -13.251127 -10.189328 6.264875 48.642674 0.457973 0.000000 0.000000 0.000000 
0.660938 0.964429 -1.142073 -3.410406 -52.542346 -13.370464 -4.192002 3.157134 14.442546 -2.857844 2.875814 14.550679 73.765599 42.680427 103.769164 0.000000 0.000000 0.000000 1.254232 2.277477 -16.166667 -1.297531 5.802726 27.916453 7.229564 -8.792921 26.353858 0.000000 0.000000 0.000000 13.012622 0.942901 31.637613 -5.035756 0.162048 -18.440242 -3.173758 -3.911734 35.935636 11.193779 -11.025642 -22.989488 0.000000 0.000000 0.000000 -4.562966 -1.361898 2.277223 -72.538841 10.182179 -11.892062 0.750481 -39.079234 4.595745 0.000000 0.000000 0.000000 24.097863 -4.546466 -15.441483 50.987674 -16.137589 -12.184274 5.764389 46.058171 0.242815 0.000000 0.000000 0.000000 
0.673202 0.964414 -1.151642 -3.535377 -52.197718 -14.155146 -3.831583 3.235674 14.763300 -2.691766 2.844825 14.812137 72.991002 42.908049 102.544030 0.000000 0.000000 0.000000 2.229098 2.440772 -16.498245 -1.939613 7.056055 30.668769 7.087498 -9.642787 28.294099 0.000000 0.000000 0.000000 12.338285 1.077852 31.870254 -5.384984 0.314800 -18.383662 -3.140514 -4.152636 36.502110 10.249537 -10.484976 -24.261170 0.000000 0.000000 0.000000 -5.384299 -0.832407 2.327608 -71.964194 9.941780 -11.969032 3.549237 -37.451720 3.556493 0.000000 0.000000 0.000000 24.112352 -5.648013 -16.133582 53.154074 -19.403435 -14.552011 6.572186 43.488311 0.636183 0.000000 0.000000 0.000000 
0.685283 0.964590 -1.161110 -3.694802 -51.516315 -14.380085 -3.608480 3.109185 14.467472 -2.402767 2.894637 15.714511 70.494895 43.141563 99.383459 0.000000 0.000000 0.000000 2.648771 2.583091 -16.892319 -1.374181 7.984623 33.604366 7.273122 -8.616734 27.356571 0.000000 0.000000 0.000000 11.394462 0.988051 30.842428 -6.098894 0.594393 -17.311932 -2.867123 -4.779420 36.753423 9.624748 -10.175775 -23.933644 0.000000 0.000000 0.000000 -5.525083 0.319744 1.858279 -71.838645 10.515016 -12.076531 5.761348 -36.672193 2.934985 0.000000 0.000000 0.000000 23.990956 -6.542858 -16.730582 54.960771 -23.122469 -17.139049 10.188898 41.884169 1.936001 0.000000 0.000000 0.000000 
0.697364 0.964810 -1.169962 -3.650687 -52.378137 -14.697370 -3.845592 2.998889 13.987273 -2.727925 3.211700 16.096662 70.957664 43.494429 98.915515 0.000000 0.000000 0.000000 3.223228 2.822220 -17.552315 -1.333629 8.807518 35.315437 7.835932 -7.361731 26.255355 0.000000 0.000000 0.000000 10.849388 0.968745 29.652719 -6.924208 0.876463 -16.480980 -2.838764 -4.109857 37.463539 10.060127 -10.397896 -24.890331 0.000000 0.000000 0.000000 -5.612933 1.376802 1.429009 -70.491047 11.271280 -12.366055 6.910499 -36.604202 2.738775 0.000000 0.000000 0.000000 23.312195 -7.948260 -17.216087 57.355342 -25.872112 -19.887135 12.843295 40.199713 2.779194 0.000000 0.000000 0.000000 
0.709486 0.964631 -1.178297 -3.784980 -52.854082 -14.651043 -3.872719 2.822226 13.386181 -2.684242 3.458111 16.886753 69.163589 43.559308 96.872591 0.000000 0.000000 0.000000 3.595554 3.054661 -18.195326 -0.963957 9.168524 36.328336 7.402057 -7.535997 25.459786 0.000000 0.000000 0.000000 10.416081 1.000750 29.233435 -7.422302 1.005423 -16.993789 -2.466612 -3.908376 38.183231 9.652409 -10.304340 -24.972701 0.000000 0.000000 0.000000 -7.437443 2.651333 1.531049 -67.995167 11.052781 -12.643857 7.237906 -36.227771 2.736352 0.000000 0.000000 0.000000 23.367526 -9.062720 -18.041963 58.669142 -28.766221 -22.154930 15.074410 39.127704 3.455752 0.000000 0.000000 0.000000 
0.721368 0.964251 -1.186107 -3.924283 -53.788815 -14.679285 -3.992201 2.861700 13.431468 -2.791696 3.558894 16.764298 68.572672 43.964886 95.302641 0.000000 0.000000 0.000000 4.304544 3.416122 -19.046856 -0.430596 9.728983 37.782731 6.908289 -8.342149 25.669688 0.000000 0.000000 0.000000 9.769724 1.091235 28.783934 -7.672142 1.021399 -17.527125 -2.139528 -2.985024 38.675093 10.286121 -10.630593 -25.736068 0.000000 0.000000 0.000000 -7.872625 3.243184 1.423522 -67.183739 11.351717 -12.912845 7.816166 -35.882663 2.604924 0.000000 0.000000 0.000000 23.007793 -10.127834 -18.382465 59.741023 -30.318037 -23.792977 16.448209 39.106991 3.926588 0.000000 0.000000 0.000000 
0.733425 0.963254 -1.193683 -3.904272 -54.760545 -14.718883 -3.975051 3.053009 13.972558 -3.071873 3.565129 16.071988 67.218911 44.483498 92.652074 0.000000 0.000000 0.000000 4.375416 3.557434 -19.432250 -0.508598 9.655331 37.280080 6.335607 -9.233978 25.478755 0.000000 0.000000 0.000000 9.569382 1.121981 28.354946 -8.776792 1.373014 -17.888850 -1.516764 -3.132835 38.682320 10.490907 -10.825773 -25.902064 0.000000 0.000000 0.000000 -8.334423 3.760273 1.399523 -65.904063 11.610743 -12.934889 8.079411 -35.690243 2.530244 0.000000 0.000000 0.000000 23.344258 -10.671208 -19.172203 59.821023 -31.004348 -24.126732 17.266985 39.332330 4.118091 0.000000 0.000000 0.000000 
0.746130 0.961518 -1.201299 -3.528264 -55.729349 -15.508425 -4.151758 3.333219 14.714219 -3.266063 3.562299 15.499638 66.281428 44.956114 90.653531 0.000000 0.000000 0.000000 3.949775 3.454752 -19.269990 -0.634580 9.489741 36.527758 5.987115 -10.774713 27.412321 0.000000 0.000000 0.000000 9.004150 1.311242 28.425626 -7.784031 0.962663 -18.012679 -2.660597 -1.602614 38.141693 10.838584 -11.070809 -24.746090 0.000000 0.000000 0.000000 -7.986805 3.404406 1.391419 -64.787606 11.392276 -12.881355 8.524286 -35.651758 2.342938 0.000000 0.000000 0.000000 23.933713 -10.617514 -19.253394 60.495369 -31.143260 -24.488800 17.929371 41.300826 4.703387 0.000000 0.000000 0.000000 
0.759647 0.959766 -1.208932 -3.617261 -56.428942 -16.033399 -4.156908 3.628062 15.518496 -3.577065 3.742096 15.490256 64.312828 45.889495 85.921221 0.000000 0.000000 0.000000 4.262192 3.437732 -19.074756 -0.178636 9.265294 36.324789 6.625488 -10.366869 28.106838 0.000000 0.000000 0.000000 8.130169 1.456050 28.139545 -6.981012 0.694601 -17.024051 -2.722820 -1.278662 37.031953 10.959869 -10.926264 -25.408778 0.000000 0.000000 0.000000 -8.289945 2.858766 1.737982 -63.787573 10.232651 -12.300952 9.879870 -36.309121 2.017302 0.000000 0.000000 0.000000 23.600258 -10.768884 -19.034412 60.298475 -28.327516 -22.845388 16.542676 42.207895 4.174191 0.000000 0.000000 0.000000 
